<svg width="48" height="47" viewBox="0 0 48 47" fill="none" xmlns="http://www.w3.org/2000/svg">
<g clip-path="url(#clip0_50_510)">
<path d="M39.6187 16.1177L39.6024 15.4249V2.32377L36.0225 5.94582C33.0928 2.31751 28.6355 0 23.6432 0C18.4475 0 13.8319 2.50891 10.9125 6.39274L16.7803 12.3917C17.3572 11.3172 18.174 10.3953 19.1591 9.69344C20.1836 8.88458 21.635 8.2233 23.643 8.2233C23.8856 8.2233 24.0727 8.25176 24.2104 8.30601C26.6981 8.50462 28.8547 9.89376 30.1241 11.9098L25.9687 16.1139L39.6165 16.1165" fill="#1C3AA9"/>
<path d="M23.55 0.000610352L22.865 0.0190108H9.9159L13.4958 3.64087C9.90934 6.60145 7.61865 11.1124 7.61865 16.1634C7.61865 21.418 10.0985 26.0895 13.9374 29.0415L19.8669 23.105C18.8055 22.5237 17.8925 21.7004 17.2001 20.7002C16.4008 19.6637 15.747 18.1953 15.747 16.1638C15.747 15.9184 15.7751 15.729 15.8287 15.5898C16.025 13.0729 17.3981 10.891 19.3908 9.6068L23.5443 13.8089L23.547 0.00136913" fill="#4285F4"/>
<path d="M7.61926 16.163L7.63557 16.8557V29.9565L11.2155 26.3346C14.1454 29.9629 18.6026 32.2804 23.595 32.2804C28.7888 32.2804 33.4061 29.7715 36.324 25.8877L30.4562 19.8888C29.8817 20.9626 29.0679 21.8863 28.0793 22.5868C27.0548 23.3957 25.6033 24.057 23.5954 24.057C23.3528 24.057 23.1656 24.0285 23.028 23.9742C20.5403 23.7756 18.3836 22.3865 17.1143 20.3704L21.2678 16.1683C16.0065 16.1872 10.0635 16.2015 7.62001 16.1656" fill="#ABABAB"/>
<path d="M10.3149 38.54C9.92587 38.54 9.57694 38.6147 9.26831 38.7638C8.96201 38.9079 8.69318 39.1223 8.48325 39.39C8.27194 39.6613 8.10919 39.9908 7.99519 40.3776C7.88269 40.7612 7.82906 41.1904 7.82906 41.6675V43.0371C7.82906 43.5157 7.88437 43.9467 7.99519 44.3303C8.10919 44.7138 8.27025 45.0413 8.47819 45.3129C8.68612 45.5845 8.93756 45.7932 9.23306 45.9389C9.52856 46.0846 9.86044 46.1578 10.2294 46.1578C10.6086 46.1578 10.9406 46.1018 11.2258 45.9897C11.5146 45.8759 11.7559 45.7166 11.9505 45.506C12.1451 45.2922 12.2944 45.0342 12.4005 44.732C12.5079 44.4301 12.5715 44.0871 12.5917 43.7039H11.6588C11.6353 43.9993 11.595 44.254 11.538 44.4627C11.481 44.6713 11.3974 44.8411 11.2864 44.9749C11.1789 45.1073 11.0381 45.2057 10.8637 45.2702C10.6927 45.3313 10.4812 45.3618 10.23 45.3618C9.96187 45.3618 9.7335 45.3025 9.54562 45.1835C9.35775 45.0614 9.20512 44.8952 9.08775 44.6846C8.97375 44.476 8.88975 44.2282 8.83612 43.9448C8.78588 43.6631 8.76056 43.3594 8.76056 43.0335V41.6539C8.76056 41.3042 8.79056 40.9869 8.85113 40.7016C8.91488 40.4165 9.0105 40.1739 9.138 39.9735C9.2655 39.7732 9.42675 39.6188 9.621 39.5103C9.81563 39.3965 10.047 39.3422 10.3155 39.3422C10.5405 39.3422 10.7331 39.3764 10.8941 39.4441C11.0554 39.5086 11.1892 39.6105 11.2967 39.7476C11.4041 39.8834 11.4842 40.0564 11.5433 40.2668C11.6023 40.4772 11.637 40.7283 11.6589 41.0203H12.5899C12.5711 40.6219 12.5111 40.2653 12.4037 39.958C12.2963 39.6507 12.1468 39.3895 11.9537 39.1791C11.7606 38.9687 11.5294 38.8092 11.2543 38.7005C10.9824 38.5918 10.6689 38.5374 10.3131 38.5374L10.3149 38.54ZM33.0399 38.54C32.6509 38.54 32.3019 38.6147 31.9933 38.7638C31.687 38.9079 31.4182 39.1223 31.2083 39.39C30.9969 39.6613 30.8342 39.9908 30.7202 40.3776C30.6077 40.7612 30.5541 41.1904 30.5541 41.6675V43.0371C30.5541 43.5157 30.6094 43.9467 30.7202 44.3303C30.8342 44.7138 30.9953 45.0413 31.2032 45.3129C31.4111 45.5845 31.6626 45.7932 31.9581 45.9389C32.2536 46.0846 32.5854 46.1578 32.9544 46.1578C33.3336 46.1578 33.6656 46.1018 33.9508 45.9897C34.2396 45.8759 34.4809 45.7166 34.6755 45.506C34.8701 45.2922 35.0194 45.0342 35.1255 44.732C35.2329 44.4301 35.2965 44.0871 35.3167 43.7039H34.3858C34.3624 43.9993 34.3221 44.254 34.2651 44.4627C34.2081 44.6713 34.1244 44.8411 34.0134 44.9749C33.906 45.1073 33.7652 45.2057 33.5908 45.2702C33.4198 45.3313 33.2083 45.3618 32.9571 45.3618C32.6889 45.3618 32.4606 45.3025 32.2727 45.1835C32.0848 45.0614 31.9322 44.8952 31.8148 44.6846C31.7008 44.476 31.6168 44.2282 31.5632 43.9448C31.5129 43.6631 31.4876 43.3594 31.4876 43.0335V41.6539C31.4876 41.3042 31.5176 40.9869 31.5782 40.7016C31.6419 40.4165 31.7376 40.1739 31.8651 39.9735C31.9926 39.7732 32.1538 39.6188 32.3481 39.5103C32.5427 39.3965 32.7741 39.3422 33.0426 39.3422C33.2676 39.3422 33.4601 39.3764 33.6212 39.4441C33.7824 39.5086 33.9163 39.6105 34.0238 39.7476C34.1312 39.8834 34.2113 40.0564 34.2703 40.2668C34.3294 40.4772 34.3641 40.7283 34.386 41.0203H35.3169C35.2982 40.6219 35.2382 40.2653 35.1307 39.958C35.0233 39.6507 34.8739 39.3895 34.6808 39.1791C34.4876 38.9687 34.2564 38.8092 33.9814 38.7005C33.7095 38.5918 33.396 38.5374 33.0401 38.5374L33.0399 38.54ZM15.6212 38.6419L13.2591 46.0542H14.205L14.7737 44.1197H17.2494L17.8281 46.0542H18.774L16.4089 38.6419H15.6212ZM19.7724 38.6419V46.0542H20.6912V43.1525H22.1049C22.4574 43.1525 22.7693 43.1031 23.0409 43.0049C23.3128 42.903 23.5408 42.7571 23.7253 42.5671C23.9132 42.377 24.054 42.1429 24.1479 41.8644C24.2454 41.5827 24.2938 41.2637 24.2938 40.9074C24.2938 40.5781 24.2451 40.2761 24.1479 40.0012C24.0542 39.7229 23.9149 39.4837 23.7304 39.2834C23.5459 39.0799 23.3179 38.9221 23.0409 38.8099C22.7691 38.6961 22.4572 38.6419 22.1049 38.6419H19.7724ZM25.0007 38.6419V39.4462H26.9229V46.0542H27.8417V39.4462H29.7692V38.6419H25.0007ZM36.5593 38.6419V46.0542H37.4781V42.6279H40.425V46.0542H41.3509V38.6419H40.425V41.8288H37.4762V38.6419H36.5593ZM44.8468 38.6419L42.4867 46.0542H43.4327L44.0014 44.1197H46.4771L47.0558 46.0542H48L45.6349 38.6419H44.8468ZM20.6931 39.4462H22.1068C22.3318 39.4462 22.5227 39.487 22.6806 39.5683C22.8349 39.6443 22.9693 39.7559 23.073 39.8942C23.1771 40.0301 23.2524 40.1879 23.2995 40.3677C23.3498 40.5441 23.3751 40.7276 23.3751 40.9178C23.3751 41.1265 23.3499 41.3219 23.2995 41.4983C23.2526 41.6713 23.1771 41.8208 23.073 41.9536C22.9723 42.0792 22.8414 42.1774 22.6806 42.2489C22.5231 42.3203 22.3318 42.3559 22.1068 42.3559H20.6931V39.4462ZM16.0134 39.9451L17.0147 43.3152H15.015L16.0134 39.9451ZM45.2391 39.9451L46.2403 43.3152H44.2406L45.2391 39.9451ZM1.89375 40.444C1.66219 40.444 1.4625 40.5034 1.29488 40.6223C1.13044 40.741 0.994875 40.9023 0.882375 41.106L0.867375 40.546H0V46.0544H0.890625V42.1139C0.974437 41.8796 1.0935 41.6965 1.24781 41.559C1.40531 41.4232 1.605 41.3555 1.84669 41.3555L2.05294 41.3657C2.11885 41.3699 2.18443 41.3784 2.24925 41.3911L2.24419 40.5155C2.23069 40.5087 2.20894 40.5018 2.17856 40.4952C2.14911 40.4843 2.11882 40.4758 2.088 40.4698C2.05425 40.463 2.01919 40.4578 1.98225 40.4546C1.9485 40.4478 1.9185 40.4444 1.89169 40.4444L1.89375 40.444ZM4.88775 40.444C4.63159 40.4436 4.37749 40.4902 4.13775 40.5815C3.894 40.6731 3.68156 40.8243 3.49369 41.0368C3.30919 41.2454 3.15994 41.5154 3.04369 41.8513C2.92969 42.1839 2.87269 42.5911 2.87269 43.0783V43.6993C2.87269 44.1201 2.92144 44.4851 3.01856 44.7939C3.11569 45.1027 3.25481 45.3592 3.43613 45.5627C3.62063 45.763 3.84375 45.9123 4.1055 46.0108C4.36725 46.1092 4.6605 46.1584 4.98619 46.1584C5.22094 46.1584 5.43056 46.1347 5.61525 46.087C5.80312 46.0396 5.96925 45.9783 6.11344 45.9038C6.25781 45.8256 6.38156 45.7374 6.48581 45.639C6.59006 45.5405 6.67894 45.4387 6.75244 45.3355L6.28931 44.7652C6.21544 44.8569 6.13669 44.9417 6.05306 45.0198C5.96925 45.0946 5.87681 45.1608 5.77631 45.2184C5.67091 45.2736 5.55954 45.3163 5.44444 45.3455C5.32387 45.3778 5.18756 45.3914 5.03681 45.3914C4.62431 45.3914 4.30556 45.2573 4.08581 44.9893C3.86775 44.7212 3.75881 44.2918 3.75881 43.6993V43.5722H6.79631V43.0479C6.79631 42.6272 6.76106 42.2554 6.69056 41.9329C6.62006 41.6104 6.50775 41.3392 6.35344 41.1183C6.2033 40.9012 5.9982 40.7289 5.75962 40.6195C5.51813 40.5041 5.22619 40.4464 4.884 40.4464L4.88775 40.444ZM4.88775 41.2179C5.08238 41.2179 5.24344 41.2536 5.37075 41.3249C5.49687 41.3949 5.60137 41.4988 5.67263 41.6252C5.74988 41.7542 5.80519 41.9086 5.83875 42.0885C5.87569 42.2649 5.89913 42.4603 5.90925 42.6739V42.796H3.76388C3.77737 42.4872 3.81413 42.2307 3.87637 42.0272C3.93862 41.8236 4.01569 41.6624 4.11263 41.5435C4.21331 41.4213 4.329 41.3348 4.45988 41.2889C4.59075 41.243 4.73325 41.2176 4.88737 41.2176L4.88775 41.2179Z" fill="#A6A6A6"/>
</g>
<defs>
<clipPath id="clip0_50_510">
<rect width="48" height="46.2857" fill="white"/>
</clipPath>
</defs>
</svg>
